# xmcd
#
# Track frame offsets: 
#        150
#        17722
#        36229
#        52326
#        72480
#        92236
#        107360
#        125879
#        146106
#        164180
#        181017
#        201134
#        217163
#        238323
#        252543
#        267962
#        283223
#        299091
#        318764
#        336855
#
# Disc length: 4769 seconds
#
# Revision: 1
# Processed by: cddbd v1.5PL3 Copyright (c) Steve Scherf et al.
# Submitted via: ExactAudioCopy v0.95a5
#
DISCID=57129f14
DTITLE=Guilherme and Santiago - As 20 Mais
DYEAR=2003
DGENRE=Sertanejo
TTITLE0=A outra
TTITLE1=Acorda pra vida
TTITLE2=Aí que eu to aí
TTITLE3=Azul
TTITLE4=Bebo e choro
TTITLE5=Do outro lado da cidade
TTITLE6=Domínio do amor
TTITLE7=Dona do meu coração
TTITLE8=Hábito
TTITLE9=No limite
TTITLE10=Número dois
TTITLE11=O casado e o solteiro
TTITLE12=O nosso amor
TTITLE13=Peão não chora
TTITLE14=Pinga com limão
TTITLE15=Pop star
TTITLE16=Porque
TTITLE17=Só falta você
TTITLE18=Som e imagem
TTITLE19=Tempestade de paixão
EXTD=
EXTT0=
EXTT1=
EXTT2=
EXTT3=
EXTT4=
EXTT5=
EXTT6=
EXTT7=
EXTT8=
EXTT9=
EXTT10=
EXTT11=
EXTT12=
EXTT13=
EXTT14=
EXTT15=
EXTT16=
EXTT17=
EXTT18=
EXTT19=
PLAYORDER=
